<mxfile host="app.diagrams.net" modified="2023-09-20T23:15:08.003Z" agent="Mozilla/5.0 (Windows NT 10.0; Win64; x64) AppleWebKit/537.36 (KHTML, like Gecko) Chrome/116.0.0.0 Safari/537.36" version="21.7.5" etag="dAWh1nK5P2VL4Eoei7D6" type="github">
  <diagram name="Page-1" id="RISO7_sFSCi6GVihfYQ-">
    <mxGraphModel>
      <root>
        <mxCell id="0" />
        <mxCell id="1" parent="0" />
      </root>
    </mxGraphModel>
  </diagram>
</mxfile>
